PathFileType	4	(X/Y/Z)	./resultDataOpenSim/trcMotMarkerGrf/sub09/qtm-15-06.trc
DataRate	CameraRate	NumFrames	NumMarkers	Units	OrigDataRate	OrigDataStartFrame	OrigNumFrames
250.000000	250.000000	6	24	m	250.000000	314	502
Frame#	Time	L.Toe.Tip			R.Toe.Tip			L.Ankle.Lat			R.Ankle.Lat			L.Ankle.Med			R.Ankle.Med			L.Heel			R.Heel			L.Knee.Lat			R.Knee.Lat			L.Knee.Med			R.Knee.Med			L.Thigh.Upper			R.Thigh.Upper			L.ASIS			R.ASIS			V.Sacral			L.Acromium			R.Acromium			C7			L.Elbow			R.Elbow			L.Wrist.Lat			R.Wrist.Lat
		X1	Y1	Z1	X2	Y2	Z2	X3	Y3	Z3	X4	Y4	Z4	X5	Y5	Z5	X6	Y6	Z6	X7	Y7	Z7	X8	Y8	Z8	X9	Y9	Z9	X10	Y10	Z10	X11	Y11	Z11	X12	Y12	Z12	X13	Y13	Z13	X14	Y14	Z14	X15	Y15	Z15	X16	Y16	Z16	X17	Y17	Z17	X18	Y18	Z18	X19	Y19	Z19	X20	Y20	Z20	X21	Y21	Z21	X22	Y22	Z22	X23	Y23	Z23	X24	Y24	Z24

314	1.252	0.1450678	-0.021670922	-0.0044057874	0.99867028	0.039222077	0.046369073	0.14610822	0.13731577	-0.076300518	0.85087137	0.051131765	0.083542572	0.18271058	0.12782209	0.015036533	0.85730689	0.091247557	-0.008571186	0.099110862	0.18754737	-0.027012452	0.78071578	0.031898854	0.036263171	0.48711503	0.37510541	-0.13163432	0.89722298	0.50097017	0.14791429	0.50224703	0.35778066	-0.0082199504	0.88273055	0.48949345	0.019786264	0.57938765	0.76892451	-0.13684809	0.65344144	0.81441247	0.22884587	0.68479762	0.84888128	-0.10043989	0.71076078	0.8913197	0.13935815	0.53589341	0.93128939	0.034708444	0.73812355	1.3074711	-0.14748022	0.69874835	1.3368113	0.17849055	0.64840801	1.3775594	0.0048955562	0.63289502	0.9365429	-0.20465241	0.49416371	1.055328	0.27258525	0.89871923	0.8753118	-0.155319	0.52645109	0.80134946	0.37259209
315	1.256	0.15007201	-0.01724088	-0.0062871858	0.99865102	0.039199405	0.046372875	0.15501923	0.14254842	-0.076379497	0.85088187	0.051162185	0.083593061	0.19206349	0.13164858	0.014791905	0.85745727	0.09129088	-0.0085115534	0.1098443	0.1939244	-0.02627175	0.78067248	0.031909581	0.036370821	0.49962822	0.3743792	-0.13259752	0.90409939	0.50004968	0.14724364	0.51449234	0.3568583	-0.0089060645	0.88665156	0.48930116	0.019537007	0.58605722	0.76919707	-0.13665711	0.65990973	0.81520663	0.22899465	0.69080917	0.84981218	-0.10134176	0.71684867	0.89203777	0.13948805	0.54142539	0.93205526	0.034914914	0.74385965	1.30805	-0.14784814	0.70498214	1.3376231	0.17819852	0.65444648	1.3783424	0.004737445	0.63846849	0.93733893	-0.20427071	0.50154655	1.0551528	0.27269225	0.90355218	0.87274744	-0.15530635	0.53607522	0.80109624	0.37216435
316	1.26	0.15568067	-0.012375571	-0.0081791107	0.99862226	0.039177753	0.046378094	0.16417851	0.1478958	-0.076433091	0.85090899	0.051189662	0.083569703	0.20156413	0.13570235	0.014564218	0.85761245	0.091317471	-0.0084911694	0.12070182	0.20033283	-0.02567572	0.78062533	0.031917732	0.036424752	0.5121224	0.37382787	-0.13349764	0.91013323	0.49922945	0.14670116	0.52724283	0.35613009	-0.0096893468	0.89037513	0.48909624	0.019381751	0.59255025	0.76968576	-0.13627425	0.66607104	0.81605409	0.22914717	0.69669235	0.85097432	-0.1019872	0.72287065	0.89287696	0.13957109	0.54676653	0.93285144	0.035119251	0.74948803	1.3087273	-0.14826236	0.71116281	1.3385391	0.17789292	0.66041158	1.3792062	0.0045679885	0.6439844	0.93820233	-0.20389294	0.50888097	1.0551195	0.27281644	0.90827403	0.87021329	-0.1553534	0.54576356	0.80096045	0.37164215
317	1.264	0.16190085	-0.0071273615	-0.0099991107	0.99858098	0.039159201	0.046357075	0.17354882	0.15330123	-0.076464687	0.85098074	0.051232587	0.08345038	0.2111966	0.13999376	0.014361886	0.85776553	0.091325619	-0.0085120227	0.13166654	0.20675644	-0.025278863	0.78056951	0.031917576	0.036419532	0.52463411	0.37342713	-0.13431185	0.91515649	0.49850494	0.14628135	0.54034027	0.35558544	-0.010493162	0.89400541	0.48883023	0.019287417	0.59888868	0.77031309	-0.13581268	0.67191941	0.81696026	0.22930527	0.70246251	0.85222566	-0.10172908	0.72883649	0.8938345	0.13961607	0.55211554	0.93364713	0.035299032	0.75501187	1.3095046	-0.14871103	0.7172868	1.3395576	0.17757562	0.66630642	1.3801456	0.0043787479	0.64944878	0.93912622	-0.20352008	0.51614693	1.0552173	0.27296371	0.91287577	0.86772657	-0.155462	0.55550699	0.80095133	0.37102693
318	1.268	0.16873251	-0.0015714127	-0.011607246	0.99852897	0.039145963	0.046304348	0.18309605	0.15872149	-0.07650851	0.8511004	0.051301384	0.083254896	0.22094677	0.14453843	0.014193894	0.85791116	0.091322379	-0.0085617685	0.14273467	0.21318218	-0.025126696	0.78050716	0.031909957	0.036367682	0.53722314	0.37316597	-0.13500822	0.91945907	0.49781836	0.14592984	0.55342115	0.35520067	-0.011175152	0.89765005	0.48847771	0.019207776	0.60509658	0.77102882	-0.13540424	0.67747674	0.8179206	0.22946239	0.70818952	0.85352985	-0.10028159	0.73474983	0.89489899	0.13963335	0.55763951	0.9344737	0.035433838	0.7604375	1.3103774	-0.14918309	0.72335755	1.3406779	0.17724843	0.67213735	1.3811598	0.0041629569	0.6548551	0.9401056	-0.20315567	0.52329335	1.0554087	0.27313113	0.91735172	0.86530231	-0.15563901	0.56530298	0.80107328	0.37032676
319	1.272	0.17617277	0.0042111491	-0.012900008	0.99847051	0.039136726	0.046242601	0.19287016	0.16416861	-0.076652621	0.85120526	0.051392205	0.08306195	0.23081273	0.14934812	0.014051115	0.85804741	0.091315406	-0.0086222713	0.15389605	0.21959287	-0.025244089	0.7804423	0.031899862	0.036288571	0.54994007	0.37304833	-0.13556253	0.9233505	0.49712496	0.14560325	0.56632783	0.35496267	-0.011685386	0.90133869	0.48804264	0.01911824	0.61120276	0.77184204	-0.13510511	0.6827931	0.81892401	0.22960927	0.71394937	0.85490002	-0.098281006	0.74060979	0.89604627	0.13963788	0.56339883	0.93542431	0.035530701	0.76577387	1.3113393	-0.14967117	0.72938567	1.3419001	0.17691165	0.67789876	1.382253	0.0039131138	0.66018229	0.94113973	-0.20279687	0.53028875	1.0556619	0.27331665	0.92170755	0.86294851	-0.15588621	0.57515094	0.80132677	0.36954896
